<?xml version="1.0" standalone="no"?>
<!DOCTYPE svg PUBLIC "-//W3C//DTD SVG 20010904//EN"
 "http://www.w3.org/TR/2001/REC-SVG-20010904/DTD/svg10.dtd">
<svg version="1.0" xmlns="http://www.w3.org/2000/svg"
 width="503.000000pt" height="503.000000pt" viewBox="0 0 503.000000 503.000000"
 preserveAspectRatio="xMidYMid meet">
<metadata>
Created by potrace 1.14, written by Peter Selinger 2001-2017
</metadata>
<g transform="translate(0.000000,503.000000) scale(0.100000,-0.100000)"
fill="#000000" stroke="none">
<path d="M2406 4855 c-45 -24 -84 -79 -65 -91 7 -4 8 -9 1 -13 -6 -4 -2 -22
10 -48 11 -24 24 -41 28 -38 5 3 10 0 12 -7 3 -7 26 -13 58 -14 50 -2 56 0 87
34 28 31 31 37 17 45 -11 6 -27 1 -53 -17 -33 -23 -42 -25 -66 -16 -37 14 -57
41 -43 57 7 9 16 10 28 3 9 -5 20 -7 23 -4 2 3 30 6 61 8 31 1 59 5 62 8 3 4
-2 22 -11 41 -25 54 -97 79 -149 52z m65 -39 c10 6 44 -24 36 -32 -2 -3 -31
-4 -63 -2 l-59 3 35 22 c19 13 37 18 38 13 2 -6 8 -8 13 -4z"/>
<path d="M2685 4862 c-13 -9 -14 -15 -30 -164 -6 -57 -6 -58 18 -56 20 2 25 8
25 33 0 16 3 39 5 50 3 11 6 28 6 37 1 23 28 48 52 48 20 0 54 -59 41 -70 -4
-3 -8 -30 -10 -60 -3 -50 -2 -56 17 -57 12 -1 22 1 22 5 1 4 3 16 4 27 12 98
20 120 48 132 18 8 26 6 44 -15 12 -14 19 -31 15 -36 -3 -6 -7 -22 -8 -36 0
-14 -3 -40 -5 -59 -3 -29 -1 -34 19 -37 12 -2 22 1 23 9 1 6 3 26 5 42 15 107
3 153 -43 174 -22 10 -32 9 -85 -4 -19 -5 -29 -2 -36 11 -6 11 -24 18 -54 19
-25 1 -50 5 -55 8 -5 3 -13 3 -18 -1z"/>
<path d="M2175 4841 c-3 -2 -15 -6 -27 -7 -60 -9 -83 -20 -104 -51 -15 -24
-27 -103 -15 -103 3 0 14 -14 23 -30 9 -17 24 -30 33 -30 8 0 15 -4 15 -9 0
-13 71 -2 98 15 21 14 22 13 22 -13 -1 -37 -20 -61 -54 -67 -30 -5 -66 11 -66
31 0 15 -19 17 -38 5 -19 -12 -4 -40 35 -66 46 -32 106 -22 144 24 28 33 31
72 15 160 -3 19 -8 46 -10 60 -9 46 -15 70 -21 79 -5 10 -42 11 -50 2z m21
-77 c3 -16 7 -30 9 -32 10 -10 -21 -65 -41 -72 -27 -10 -67 1 -80 22 -28 45 4
104 57 106 17 0 34 3 37 6 8 9 12 2 18 -30z"/>
<path d="M3259 4810 c0 -8 -3 -75 -5 -149 -6 -189 10 -203 102 -88 33 39 61
74 65 77 20 19 58 78 52 83 -19 20 -47 0 -105 -72 -35 -44 -64 -78 -66 -76 -2
2 -3 26 -3 54 1 28 1 74 2 102 0 28 -4 56 -10 62 -6 6 -11 7 -11 2 0 -6 -5 -3
-10 5 -9 13 -10 13 -11 0z"/>
<path d="M1880 4781 c0 -4 -6 -8 -12 -9 -27 -1 -61 -12 -72 -22 -7 -5 -15 -8
-18 -5 -2 3 -16 -8 -30 -23 -28 -32 -41 -79 -24 -86 7 -3 6 -5 -2 -5 -9 -1 -8
-7 4 -26 9 -14 12 -25 8 -25 -5 0 6 -10 25 -22 42 -27 76 -29 121 -10 37 17
45 19 72 21 18 1 18 16 -1 64 -6 15 -13 38 -16 50 -11 50 -31 97 -42 102 -7 2
-13 1 -13 -4z m-4 -69 c0 -4 6 -19 12 -34 8 -20 8 -36 1 -58 -6 -16 -12 -30
-12 -30 -64 -16 -103 -1 -110 41 -8 42 9 66 55 82 41 14 52 13 54 -1z"/>
<path d="M1523 4649 c-39 -11 -94 -64 -89 -87 6 -30 17 -49 29 -50 7 0 25 -3
40 -7 21 -4 27 -2 21 6 -4 7 -3 9 3 6 6 -4 25 -2 43 4 24 9 34 9 43 0 9 -10 5
-18 -16 -37 -27 -23 -59 -26 -87 -9 -5 3 -10 1 -10 -4 0 -6 -8 -11 -17 -11
-15 0 -13 -4 7 -20 48 -37 138 -9 168 53 10 20 10 32 2 47 -18 34 -53 41 -111
24 -61 -18 -83 -8 -50 25 16 16 32 21 66 19 51 -1 65 6 44 26 -21 20 -50 25
-86 15z"/>
<path d="M3555 4613 c-34 -7 -85 -37 -85 -50 0 -7 -3 -13 -7 -13 -12 0 -13
-51 -2 -86 21 -68 90 -97 156 -66 25 12 30 18 22 29 -14 16 -41 17 -57 1 -8
-8 -12 -9 -12 -1 0 6 -8 10 -17 9 -25 -4 -53 31 -53 65 l0 29 38 -18 c20 -9
56 -27 79 -39 51 -28 52 -28 62 0 10 27 -12 94 -37 113 -25 19 -64 31 -87 27z
m68 -76 c10 -12 14 -24 9 -29 -10 -10 -42 0 -42 13 0 5 -8 9 -17 9 -10 0 -25
5 -33 10 -13 9 -13 11 0 20 20 13 61 1 83 -23z"/>
<path d="M1266 4509 c-34 -10 -75 -45 -87 -77 -9 -23 3 -60 24 -73 13 -9 66 0
99 17 16 8 28 11 28 7 0 -5 4 -2 9 5 6 10 10 10 19 -1 20 -23 -20 -60 -65 -61
-45 -1 -66 -15 -51 -33 27 -33 122 -3 152 48 48 81 -25 125 -123 75 -36 -19
-56 -11 -45 17 7 18 60 48 69 39 10 -10 35 -11 35 -1 0 6 5 7 10 4 6 -3 10 0
10 8 0 14 -19 27 -45 32 -5 1 -23 -2 -39 -6z"/>
<path d="M3798 4473 c-8 -10 -30 -40 -48 -68 -19 -27 -37 -52 -40 -55 -16 -12
-22 -53 -9 -61 19 -12 29 -11 29 2 0 12 56 87 80 106 8 7 24 10 35 7 11 -3 27
-8 36 -10 10 -3 19 3 23 12 7 19 -3 34 -27 38 -9 1 -27 12 -40 24 -22 21 -24
21 -39 5z"/>
<path d="M1039 4352 c-57 -39 -99 -86 -105 -119 -20 -107 106 -178 185 -103
17 17 31 35 31 42 0 6 3 8 7 5 3 -4 15 0 25 9 17 16 16 20 -35 78 -29 34 -60
71 -68 83 -15 21 -16 21 -40 5z m40 -81 c14 -16 26 -38 28 -48 5 -27 -6 -65
-17 -58 -6 3 -10 2 -10 -4 0 -16 -36 -22 -63 -10 -31 14 -49 57 -35 85 10 18
58 64 68 64 3 0 16 -13 29 -29z"/>
<path d="M3933 4313 c-18 -9 -33 -22 -33 -29 0 -7 -4 -14 -9 -16 -12 -4 -16
-56 -7 -95 6 -24 17 -36 46 -50 22 -10 40 -23 40 -28 0 -6 8 -15 18 -22 17
-10 30 2 111 99 87 102 92 110 75 123 -17 12 -21 11 -39 -11 l-20 -25 -41 30
c-51 38 -98 45 -141 24z m87 -44 c0 -5 3 -8 8 -6 4 2 18 -6 31 -19 l24 -23
-35 -35 c-55 -55 -111 -45 -123 21 -4 25 0 37 17 53 23 21 78 28 78 9z"/>
<path d="M763 4162 c-12 -2 -45 -27 -73 -55 l-51 -52 65 -60 c96 -89 138 -125
146 -125 4 0 13 6 19 13 8 10 3 21 -21 45 -30 32 -31 33 -12 55 11 12 22 24
25 27 3 3 11 19 16 35 8 24 6 38 -9 68 -10 20 -19 37 -21 37 -1 0 -16 4 -32 8
-17 4 -40 6 -52 4z m64 -71 c18 -23 16 -28 -19 -66 l-33 -34 -33 33 -33 32 30
33 c33 35 63 36 88 2z"/>
<path d="M4172 4099 c-51 -19 -79 -81 -62 -138 9 -34 24 -52 57 -69 26 -14 80
-16 87 -3 10 16 -5 40 -23 36 -10 -2 -32 5 -50 16 -32 20 -41 57 -21 89 8 12
19 5 60 -39 27 -30 50 -57 50 -62 0 -17 26 -15 43 4 25 30 23 98 -5 129 -40
45 -84 56 -136 37z m100 -66 c9 -10 15 -27 13 -38 -2 -11 -4 -22 -4 -25 -1 -3
-19 15 -41 40 -25 29 -35 47 -27 52 13 8 36 -3 59 -29z"/>
<path d="M1927 3934 c-1 -1 -27 -4 -57 -7 -61 -6 -74 -9 -110 -25 -103 -46
-135 -176 -66 -267 56 -73 168 -91 235 -37 40 32 71 80 74 111 1 12 4 21 7 21
3 0 6 8 7 18 11 173 11 171 -6 177 -14 6 -80 13 -84 9z"/>
<path d="M1251 3855 c-15 -19 -4 -197 14 -239 48 -111 167 -153 261 -91 39 25
49 35 68 74 43 82 4 181 -89 226 -30 15 -74 29 -97 32 -86 9 -150 8 -157 -2z"/>
<path d="M4402 3688 c-7 -7 -12 -9 -12 -4 0 4 -7 1 -15 -8 -19 -18 -19 -46 -1
-71 37 -51 116 -2 86 54 -15 29 -44 43 -58 29z"/>
<path d="M573 3653 c-20 -29 -10 -65 20 -79 50 -23 98 54 58 90 -23 21 -61 16
-78 -11z"/>
<path d="M1806 3492 c-2 -2 -10 -5 -18 -6 -36 -7 -86 -37 -116 -70 -18 -20
-30 -36 -27 -36 3 0 -3 -12 -12 -27 -17 -25 -18 -84 -20 -923 -2 -679 1 -902
10 -922 24 -54 -2 -53 910 -53 l847 1 28 27 27 27 1 898 c0 766 -2 902 -14
934 -16 41 -82 118 -100 118 -7 0 -12 5 -12 12 0 6 -3 8 -6 5 -4 -3 -16 -1
-28 6 -16 9 -203 12 -744 12 -397 1 -724 -1 -726 -3z m1144 -167 c31 -28 48
-65 44 -97 -3 -33 -42 -91 -55 -83 -5 4 -9 2 -9 -2 0 -5 -8 -10 -17 -11 -10
-1 -27 -3 -38 -5 -11 -2 -23 0 -26 6 -4 5 -12 6 -19 2 -18 -11 -99 -12 -103
-1 -2 5 -9 6 -16 1 -19 -11 -100 -12 -104 -1 -2 5 -9 6 -16 1 -19 -11 -100
-12 -104 -1 -2 5 -9 6 -16 1 -19 -11 -100 -12 -104 -1 -2 5 -9 6 -16 1 -19
-11 -100 -12 -104 -1 -2 5 -9 6 -17 1 -16 -10 -62 -10 -107 0 -69 16 -101 99
-62 162 11 18 24 33 27 34 19 2 44 8 47 11 2 2 181 3 398 3 379 0 396 -1 417
-20z m310 -374 l26 -26 -1 -275 c-1 -151 -3 -277 -4 -280 -1 -3 -3 -21 -5 -41
-5 -63 -50 -125 -142 -199 -6 -4 -33 -15 -60 -23 -40 -12 -142 -14 -569 -13
l-520 1 -50 27 c-28 14 -63 39 -79 54 -34 35 -70 84 -60 84 3 0 0 7 -7 16 -21
25 -23 51 -23 365 -1 311 0 316 44 331 8 2 332 5 719 5 l705 0 26 -26z m-60
-1031 c30 -27 34 -36 34 -80 0 -38 -5 -55 -24 -75 -49 -52 -125 -49 -172 6
-21 25 -26 39 -23 76 2 29 9 49 21 58 11 8 15 15 9 15 -29 1 46 28 81 29 32 1
48 -5 74 -29z m-1206 -30 c53 -52 33 -152 -34 -179 -66 -26 -133 6 -151 72
-13 48 -6 80 24 108 49 46 113 46 161 -1z"/>
<path d="M1328 3445 c-3 -4 -12 -7 -20 -9 -38 -5 -105 -84 -115 -136 -11 -52
-14 -83 -16 -145 l-2 -70 100 0 c113 0 175 18 218 63 25 27 53 92 52 122 -4
68 -27 106 -97 159 -19 14 -109 26 -120 16z"/>
<path d="M4766 3413 c-4 -5 -11 -8 -14 -9 -4 0 -16 -4 -27 -8 -35 -14 -50 -19
-60 -22 -43 -13 -131 -50 -137 -58 -3 -5 -4 -15 -1 -23 6 -15 63 -8 74 9 7 11
22 -7 39 -50 26 -67 104 -88 152 -41 35 33 39 72 17 138 -21 60 -31 75 -43 64z
m-10 -62 c-4 -5 -2 -11 4 -13 5 -1 11 -21 13 -43 2 -34 -1 -41 -27 -53 -25
-13 -30 -12 -47 4 -10 11 -21 33 -25 49 -5 28 -3 31 38 47 53 20 50 20 44 9z"/>
<path d="M335 3388 c-21 -12 -54 -46 -56 -57 0 -3 -3 -19 -5 -36 -9 -54 34
-109 95 -121 43 -9 96 18 118 60 25 49 4 136 -32 136 -10 0 -12 -11 -8 -37 11
-75 3 -94 -47 -111 -22 -8 -30 -7 -34 4 -3 8 -1 14 5 14 6 0 8 4 4 9 -3 5 -1
12 4 15 5 3 12 22 15 41 4 19 10 35 15 35 4 0 8 6 8 13 0 6 2 19 4 27 5 19
-57 25 -86 8z m34 -71 c-6 -17 -16 -42 -22 -55 l-11 -23 -12 23 c-9 18 -9 28
4 55 8 17 19 30 24 27 4 -3 8 0 8 6 0 6 4 9 9 5 6 -3 6 -18 0 -38z"/>
<path d="M134 3119 c-8 -14 13 -36 42 -43 21 -6 23 -10 18 -39 -12 -57 -11
-82 5 -110 14 -25 61 -65 61 -52 0 2 10 1 23 -4 16 -6 34 -4 63 10 21 10 35
18 30 19 -6 0 -2 6 8 13 12 9 19 29 21 61 2 26 6 50 9 53 3 4 6 16 6 28 0 17
-5 22 -22 21 -13 -1 -40 4 -61 11 -20 7 -39 12 -42 13 -3 0 -6 0 -7 1 -2 0
-12 2 -23 4 -11 2 -31 6 -45 9 -61 13 -80 14 -86 5z m162 -72 c4 -4 14 -7 21
-7 8 0 20 -6 27 -13 15 -15 27 -67 15 -67 -5 0 -9 -6 -9 -14 0 -13 -23 -26
-57 -32 -7 -1 -24 7 -38 18 -22 17 -25 25 -20 61 4 23 7 48 7 55 1 13 41 12
54 -1z"/>
<path d="M4684 3087 c-49 -25 -72 -113 -41 -157 8 -12 13 -29 10 -36 -3 -8 0
-21 7 -28 10 -13 17 -13 51 -1 21 8 39 12 39 10 0 -2 23 3 50 10 28 7 50 10
50 7 0 -4 5 1 10 10 13 22 -13 139 -35 154 -8 6 -15 16 -15 21 0 5 -6 10 -12
11 -59 9 -96 9 -114 -1z m102 -47 c1 0 7 -12 13 -27 17 -44 20 -79 8 -81 -81
-12 -97 -10 -117 15 -26 34 -25 57 5 87 21 21 29 23 57 15 18 -5 33 -9 34 -9z"/>
<path d="M149 2818 c-4 -9 -6 -106 -3 -118 2 -9 16 -15 36 -16 18 0 66 -3 107
-7 40 -3 70 -3 67 0 -3 3 -1 12 5 19 12 15 -4 20 -76 28 -65 7 -85 16 -91 45
-10 45 -13 51 -29 51 -8 0 -15 -1 -16 -2z"/>
<path d="M4813 2780 c-28 -11 -40 -35 -44 -85 -1 -22 -7 -49 -12 -59 -9 -19
-10 -19 -28 2 -19 25 -17 60 7 96 12 19 12 25 1 34 -15 13 -30 5 -45 -24 -39
-74 0 -172 67 -170 24 1 51 49 55 100 5 56 17 74 36 51 15 -17 16 -75 2 -84
-14 -10 -21 -37 -13 -50 12 -19 51 19 60 59 10 44 -1 85 -30 116 -25 26 -25
26 -56 14z"/>
<path d="M184 2576 c-41 -18 -65 -67 -58 -115 3 -20 11 -39 18 -43 6 -4 7 -8
3 -8 -15 0 18 -26 51 -39 26 -11 41 -11 73 -2 45 13 69 44 79 102 7 36 4 43
-30 80 -29 32 -39 38 -47 27 -9 -10 -6 -23 11 -51 26 -42 24 -77 -5 -103 -15
-13 -22 -15 -31 -6 -14 14 -18 52 -6 52 5 0 6 5 2 12 -11 17 -11 58 -1 58 5 0
5 6 -2 13 -8 10 -7 17 1 25 17 17 -18 15 -58 -2z m22 -153 c-3 -3 -12 2 -21
10 -20 21 -19 66 3 90 16 19 17 17 20 -38 2 -31 1 -60 -2 -62z"/>
<path d="M4723 2478 c-18 -9 -33 -37 -37 -70 -1 -3 -4 -9 -8 -13 -4 -4 -3 -15
1 -24 30 -63 38 -75 57 -82 29 -10 72 27 79 68 12 71 35 103 49 67 11 -28 6
-59 -11 -84 -35 -50 -20 -74 22 -37 52 45 44 157 -14 178 -39 15 -68 -11 -81
-75 -17 -84 -52 -98 -55 -22 -1 17 6 39 17 50 18 20 25 57 11 55 -5 0 -18 -5
-30 -11z"/>
<path d="M74 2289 c-10 -16 5 -45 24 -46 44 -3 178 -35 187 -44 7 -7 7 -9 0
-8 -16 5 -182 -78 -188 -94 -3 -7 -2 -19 2 -26 6 -8 37 3 112 39 165 81 157
74 150 119 -1 10 -39 21 -86 27 -16 2 -41 6 -55 9 -14 3 -36 8 -50 11 -14 3
-40 9 -57 14 -20 5 -35 5 -39 -1z"/>
<path d="M4688 2171 c-29 -26 -33 -35 -33 -80 0 -28 -3 -51 -7 -51 -5 0 -8 -9
-8 -19 0 -21 16 -29 69 -37 20 -2 58 -9 84 -14 27 -6 52 -8 57 -5 8 5 25 94
23 123 0 6 -1 21 -2 31 0 11 -15 33 -32 50 -43 43 -104 44 -151 2z m123 -37
c18 -16 20 -27 15 -69 -3 -27 -6 -50 -6 -51 0 0 -15 1 -32 3 -69 9 -104 45
-86 92 18 50 69 61 109 25z"/>
<path d="M4533 1919 c-54 -20 -79 -99 -49 -157 14 -27 63 -59 101 -65 11 -2
27 -7 36 -11 8 -4 43 -15 78 -26 45 -13 63 -15 66 -7 2 7 9 30 16 52 19 58 20
67 14 101 -18 107 -168 120 -210 19 -8 -18 -12 -42 -10 -54 2 -11 -1 -21 -6
-21 -16 0 -58 46 -55 61 7 43 20 60 47 66 33 6 59 40 37 47 -18 6 -41 4 -65
-5z m196 -86 c36 -30 23 -130 -16 -126 -70 7 -105 50 -83 102 17 42 63 53 99
24z"/>
<path d="M347 1876 c-77 -29 -111 -64 -110 -113 1 -27 8 -44 28 -60 22 -19 25
-29 20 -54 -5 -20 -2 -38 9 -54 9 -13 16 -33 16 -44 0 -11 4 -22 9 -25 11 -7
211 64 211 74 0 4 -7 13 -15 20 -11 9 -26 8 -73 -8 -32 -12 -67 -20 -77 -18
-22 3 -55 46 -36 46 7 0 10 4 7 9 -8 12 28 34 92 56 36 13 51 23 47 33 -3 7
-5 17 -5 22 0 5 -33 -2 -72 -16 -84 -28 -118 -23 -114 19 4 37 12 44 81 69 53
18 65 27 63 42 -4 27 -14 27 -81 2z"/>
<path d="M4501 1574 c-17 -14 -35 -40 -39 -57 -11 -40 8 -101 33 -105 10 -2
15 0 11 6 -3 6 -2 13 3 17 7 3 7 15 1 29 -16 43 0 67 60 92 3 2 12 -1 19 -5 9
-6 2 -28 -29 -87 -39 -76 -40 -79 -19 -86 71 -27 158 48 144 125 -17 88 -117
127 -184 71z m139 -91 c0 -13 -9 -32 -20 -43 -22 -22 -56 -28 -43 -7 4 6 8 14
9 17 0 3 9 22 19 43 20 39 35 34 35 -10z"/>
<path d="M500 1484 c0 -16 23 -44 37 -44 42 0 70 -83 38 -110 -13 -11 -18 -10
-30 6 -8 10 -18 29 -21 42 -3 12 -10 22 -16 22 -5 0 -6 5 -3 10 3 6 1 10 -4
10 -6 0 -11 6 -11 14 0 7 -7 19 -15 26 -13 11 -19 9 -35 -10 -93 -107 53 -256
158 -162 18 16 29 32 25 35 -3 4 -2 7 4 7 14 0 8 76 -7 106 -7 13 -28 30 -45
39 -33 15 -75 20 -75 9z m23 -176 c-7 -13 -51 14 -62 39 -8 18 -8 30 0 45 11
20 13 18 38 -28 15 -27 26 -52 24 -56z"/>
<path d="M1822 1375 c-4 -5 -7 -43 -9 -83 -1 -67 1 -76 25 -103 22 -25 37 -31
74 -33 59 -4 105 16 118 49 6 15 11 58 13 96 3 82 10 77 -126 81 -52 2 -92 -1
-95 -7z"/>
<path d="M2999 1378 c-7 -21 -2 -146 7 -168 16 -37 61 -60 110 -56 84 6 111
46 109 156 l-1 65 -112 3 c-62 1 -112 1 -113 0z"/>
<path d="M4377 1353 c-16 -15 -4 -34 41 -64 54 -38 72 -58 69 -79 -8 -49 -51
-48 -126 2 -41 28 -56 34 -66 25 -18 -17 -10 -28 43 -63 26 -17 54 -43 62 -59
14 -25 13 -28 -8 -46 -28 -22 -51 -15 -119 34 -44 31 -45 31 -59 12 -12 -15
-12 -21 -2 -24 7 -2 18 -9 25 -15 30 -26 42 -35 71 -50 17 -9 43 -16 57 -16
30 0 88 37 80 50 -3 5 -1 11 4 14 5 4 8 17 7 30 -2 19 3 25 23 29 16 4 33 17
41 34 8 15 17 30 20 33 33 33 32 38 -17 71 -26 18 -49 36 -51 41 -2 4 -8 8
-14 8 -5 0 -21 9 -35 20 -28 21 -36 24 -46 13z"/>
<path d="M734 1272 c-16 -10 -67 -45 -112 -80 l-82 -63 27 -37 c40 -54 84 -92
107 -93 85 -5 136 38 136 115 0 27 -8 44 -34 70 -38 37 -33 56 14 56 48 0 73
-49 55 -107 -5 -16 -3 -25 9 -29 35 -13 58 63 37 119 -21 54 -101 79 -157 49z
m-11 -103 c75 -34 38 -142 -42 -124 -16 3 -34 17 -41 30 -7 14 -17 25 -22 25
-12 0 -10 20 5 34 10 10 65 44 74 46 1 0 13 -5 26 -11z"/>
<path d="M821 945 l-75 -76 48 -48 c73 -74 142 -83 195 -27 48 51 28 152 -34
176 -14 5 -25 16 -25 24 0 11 -20 26 -33 26 -1 0 -35 -34 -76 -75z m119 -20
c24 -13 30 -22 30 -50 0 -35 -30 -75 -58 -75 -18 0 -47 16 -76 43 -23 22 -24
23 -6 45 15 18 65 52 78 52 2 0 16 -7 32 -15z"/>
<path d="M3976 871 c-17 -18 -16 -22 7 -73 13 -29 39 -88 57 -130 19 -43 37
-78 41 -78 19 0 32 31 22 53 -29 60 -61 135 -68 157 -7 23 -7 24 16 9 83 -53
160 -90 179 -84 11 3 20 10 20 15 0 6 -244 150 -255 150 -1 0 -10 -9 -19 -19z"/>
<path d="M1081 771 c-27 -27 -19 -64 23 -108 42 -44 49 -78 14 -67 -34 10 -46
22 -60 60 -15 42 -36 51 -44 20 -12 -50 42 -111 108 -121 39 -6 54 2 66 35 11
29 1 49 -46 98 -30 30 -32 36 -19 49 20 21 55 1 72 -41 15 -35 41 -62 48 -49
18 35 -18 104 -68 127 -44 21 -71 20 -94 -3z"/>
<path d="M3762 703 c-18 -16 -35 -41 -38 -58 -3 -16 -7 -31 -10 -34 -2 -2 1
-10 7 -18 10 -11 15 -9 30 8 11 12 19 30 19 40 0 21 46 48 73 43 10 -1 25 -8
33 -14 12 -11 3 -20 -53 -59 -37 -25 -69 -53 -71 -62 -4 -22 53 -48 96 -44 85
8 129 119 73 185 -22 27 -35 33 -76 37 -44 4 -54 1 -83 -24z m136 -100 c-15
-36 -36 -53 -65 -53 -34 0 -28 15 20 49 52 38 60 38 45 4z"/>
<path d="M1347 622 c-33 -4 -50 -32 -41 -69 7 -27 20 -42 72 -84 26 -20 22
-39 -8 -39 -22 0 -70 44 -70 64 0 18 -31 29 -44 16 -7 -7 -6 -10 2 -10 6 0 9
-7 6 -15 -21 -53 108 -120 159 -82 35 25 29 54 -24 109 -27 28 -49 54 -49 58
0 15 13 17 45 7 31 -9 46 -26 44 -50 0 -9 31 -36 43 -37 15 0 -2 73 -21 94
-25 26 -74 43 -114 38z"/>
<path d="M3588 593 c-23 -6 -24 -5 16 -77 23 -41 31 -67 26 -76 -5 -8 -7 -17
-4 -22 2 -4 -5 -12 -16 -18 -11 -6 -20 -17 -20 -25 0 -24 21 -28 48 -9 15 11
39 26 55 33 15 8 24 17 20 20 -5 3 -24 36 -43 73 -44 86 -61 106 -82 101z"/>
<path d="M1580 495 c0 -8 -4 -23 -10 -33 -8 -14 -27 -58 -35 -82 -1 -3 -7 -18
-14 -34 -14 -35 -11 -39 57 -65 60 -24 93 -26 125 -9 22 11 56 45 58 57 14 87
-22 144 -96 153 -16 2 -36 9 -43 16 -18 17 -42 15 -42 -3z m103 -66 c28 -13
52 -55 36 -64 -5 -4 -7 -10 -4 -14 6 -11 -26 -39 -50 -42 -11 -1 -39 3 -61 10
-41 13 -41 14 -28 40 8 14 14 31 14 37 0 13 39 43 57 43 7 1 23 -4 36 -10z"/>
<path d="M3343 475 c-17 -7 -34 -18 -37 -24 -4 -6 -18 -11 -32 -11 -26 0 -32
-24 -14 -60 6 -11 15 -29 20 -40 6 -11 10 -27 10 -35 0 -8 4 -15 8 -15 4 0 14
-20 21 -44 18 -63 33 -80 60 -71 15 4 19 10 13 18 -26 35 -22 47 28 72 89 45
108 139 40 193 -34 26 -79 33 -117 17z m87 -53 c26 -21 30 -63 9 -89 -8 -9
-29 -23 -48 -30 -32 -14 -36 -13 -48 3 -14 19 -15 22 -17 69 -4 56 58 84 104
47z"/>
<path d="M3054 383 c-26 -5 -69 -49 -79 -80 -10 -34 25 -30 57 7 16 19 36 30
52 30 27 0 71 -35 62 -49 -3 -4 -41 -16 -86 -26 -84 -19 -92 -28 -62 -64 47
-56 124 -57 174 -2 23 26 26 37 23 81 -2 41 -8 56 -31 75 -16 14 -33 25 -39
26 -5 0 -19 2 -30 3 -11 2 -30 1 -41 -1z m96 -131 c0 -35 -64 -61 -95 -39 -18
14 -16 16 30 30 62 18 65 19 65 9z"/>
<path d="M2001 363 c1 -5 0 -11 -1 -15 -1 -5 -3 -11 -4 -15 -10 -43 -18 -53
-36 -43 -34 18 -97 12 -125 -12 -48 -42 -38 -125 18 -151 60 -28 119 -40 128
-26 6 10 48 166 54 199 1 3 5 16 9 29 6 16 4 26 -5 32 -17 11 -39 12 -38 2z
m-53 -118 c18 -5 21 -11 17 -38 -9 -46 -23 -59 -59 -51 -31 7 -55 29 -56 52 0
20 40 53 58 48 9 -2 27 -7 40 -11z"/>
<path d="M2479 289 c-22 -22 -18 -55 9 -75 17 -12 24 -12 58 -1 30 10 37 54
13 78 -25 25 -54 24 -80 -2z"/>
</g>
</svg>
