<?xml version="1.0" standalone="no"?>
<!DOCTYPE svg PUBLIC "-//W3C//DTD SVG 20010904//EN"
 "http://www.w3.org/TR/2001/REC-SVG-20010904/DTD/svg10.dtd">
<svg version="1.0" xmlns="http://www.w3.org/2000/svg"
 width="447.000000pt" height="440.000000pt" viewBox="0 0 447.000000 440.000000"
 preserveAspectRatio="xMidYMid meet">

<g transform="translate(0.000000,440.000000) scale(0.100000,-0.100000)"
fill="#000000" stroke="none">
<path d="M2685 4321 c-241 -69 -399 -255 -398 -471 0 -73 12 -111 55 -172 9
-13 -7 -112 -80 -495 -50 -263 -95 -498 -98 -523 -4 -25 -10 -51 -14 -58 -4
-9 -39 31 -102 120 -163 228 -303 397 -514 618 -69 73 -93 104 -98 132 -8 46
-70 129 -125 170 -87 64 -215 91 -324 68 -53 -11 -58 -14 -53 -33 3 -12 13
-53 22 -92 20 -87 44 -135 95 -190 77 -84 222 -115 314 -68 l39 21 39 -52
c367 -486 559 -918 608 -1368 10 -83 9 -143 0 -270 -7 -90 -15 -165 -17 -168
-7 -6 15 -24 -536 429 -276 228 -528 435 -558 459 -92 75 -140 125 -140 144 0
34 -37 93 -92 144 -91 87 -190 125 -324 125 -91 0 -153 -13 -233 -48 -84 -36
-84 -37 -48 -96 18 -29 43 -74 57 -101 40 -80 126 -160 216 -203 75 -36 84
-38 179 -38 84 0 108 4 146 23 25 12 52 22 61 22 37 0 367 -313 541 -513 214
-246 377 -481 531 -762 119 -218 116 -205 76 -343 -18 -65 -62 -206 -97 -314
-54 -165 -75 -215 -129 -305 -35 -58 -62 -108 -61 -110 2 -2 302 -2 666 -1
l662 3 -76 95 c-187 232 -288 470 -381 899 -36 166 -34 173 106 299 412 372
732 708 1155 1212 l173 207 59 0 c97 0 199 63 263 163 66 103 83 218 58 383
-13 88 -12 88 -113 62 -197 -50 -334 -184 -366 -357 -10 -54 -10 -79 0 -124
16 -72 21 -65 -185 -258 -192 -180 -408 -361 -598 -504 -167 -125 -599 -412
-621 -412 -19 0 -19 0 1 168 41 354 174 644 450 982 155 190 169 204 201 195
16 -5 57 -9 93 -9 52 -1 76 5 120 26 124 61 229 215 250 367 8 59 7 98 -7 193
l-17 118 -31 0 c-51 0 -145 -28 -223 -66 -151 -74 -256 -209 -282 -363 -12
-72 -2 -159 21 -187 7 -9 -1 -23 -33 -52 -116 -106 -601 -532 -603 -530 -1 2
17 247 41 546 27 352 46 548 54 557 7 8 24 15 37 15 40 0 124 48 179 102 116
113 162 299 118 472 -31 124 -35 136 -42 135 -4 0 -34 -8 -67 -18z m92 -96
c36 -149 28 -255 -29 -371 -32 -67 -111 -151 -173 -183 -148 -78 -274 5 -275
181 0 195 135 368 350 445 98 35 101 33 127 -72z m-1556 -549 c71 -28 121 -68
165 -132 43 -62 54 -122 30 -159 -43 -66 -176 -86 -271 -41 -61 29 -117 86
-144 146 -23 53 -56 189 -47 198 12 12 92 20 151 15 33 -3 85 -15 116 -27z
m2295 -56 c35 -218 -6 -377 -129 -500 -127 -127 -281 -142 -363 -34 -28 36
-29 43 -29 139 0 97 2 104 37 177 43 87 129 174 218 223 64 34 194 75 230 72
22 -2 25 -8 36 -77z m781 -366 c23 -133 14 -221 -32 -319 -74 -155 -250 -248
-353 -185 -58 35 -73 73 -70 170 3 73 8 95 36 152 37 75 108 147 190 191 49
27 187 69 207 63 5 -1 15 -34 22 -72z m-3794 -489 c82 -21 132 -50 195 -109
92 -86 115 -167 71 -245 -28 -50 -58 -69 -135 -88 -57 -14 -77 -15 -136 -5
-140 24 -269 121 -337 253 -18 35 -42 79 -53 97 l-20 32 54 25 c119 54 250 69
361 40z"/>
<path d="M1336 4252 c-3 -5 -8 -62 -12 -128 -6 -105 -4 -126 14 -177 42 -118
138 -195 256 -204 121 -10 173 38 163 153 -13 168 -150 310 -334 349 -81 17
-80 17 -87 7z m110 -26 c161 -43 282 -175 300 -327 5 -42 2 -63 -10 -88 -66
-127 -324 -39 -382 130 -20 58 -24 167 -11 252 9 54 17 56 103 33z"/>
<path d="M3167 4146 c-145 -53 -228 -227 -144 -304 33 -30 61 -34 106 -16 80
32 132 120 130 220 -3 111 -17 127 -92 100z m67 -11 c14 -37 17 -114 6 -155
-44 -167 -236 -208 -232 -49 2 90 66 168 169 205 49 17 50 17 57 -1z"/>
<path d="M1969 3992 c-88 -70 -141 -156 -160 -257 -25 -134 41 -273 136 -291
19 -3 46 -3 60 0 35 9 102 72 125 116 43 83 45 211 6 305 -18 41 -103 165
-114 165 -4 0 -28 -17 -53 -38z m105 -50 c55 -81 76 -143 76 -228 0 -155 -105
-282 -209 -254 -41 11 -69 36 -97 90 -15 27 -19 56 -19 130 0 84 3 101 27 148
15 28 40 68 55 88 27 34 99 94 114 94 4 0 28 -31 53 -68z"/>
<path d="M3871 3579 c-83 -24 -141 -82 -162 -161 -34 -127 96 -179 209 -82 47
40 77 107 86 192 l6 62 -53 -1 c-28 0 -67 -5 -86 -10z m119 -52 c0 -132 -119
-250 -225 -223 -38 10 -57 60 -43 113 23 92 119 158 236 162 l32 1 0 -53z"/>
<path d="M2687 3451 c-94 -45 -138 -87 -177 -165 -72 -142 -7 -304 113 -282
81 15 165 110 188 213 14 63 1 168 -29 233 l-17 38 -78 -37z m99 -49 c9 -31
17 -87 17 -124 0 -207 -223 -353 -295 -192 -53 122 24 276 176 348 39 19 74
32 78 29 4 -2 15 -30 24 -61z"/>
<path d="M205 3380 c-9 -14 -9 -140 0 -181 26 -118 143 -229 243 -229 179 0
154 270 -34 372 -68 36 -196 60 -209 38z m141 -26 c27 -7 69 -27 92 -44 122
-88 159 -256 68 -311 -41 -25 -70 -24 -131 5 -101 48 -155 137 -163 268 -2 42
-2 84 2 93 6 18 38 15 132 -11z"/>
<path d="M736 3349 c-60 -191 -68 -231 -64 -327 3 -83 8 -107 35 -164 38 -81
104 -155 174 -192 95 -52 201 -20 250 75 43 86 32 235 -27 352 -41 80 -147
180 -235 222 -93 43 -127 52 -133 34z m144 -54 c111 -56 219 -188 250 -304 19
-73 15 -192 -9 -239 -26 -50 -77 -91 -125 -99 -90 -14 -217 82 -277 210 -32
67 -34 79 -34 177 0 92 4 117 34 207 l33 101 37 -13 c21 -7 62 -25 91 -40z"/>
<path d="M3411 2990 c-29 -11 -60 -25 -70 -32 -84 -63 -130 -140 -138 -229 -5
-52 -3 -60 20 -82 86 -87 253 -36 322 98 27 52 30 70 33 162 l4 103 -59 0
c-32 -1 -82 -9 -112 -20z m157 -84 c-3 -80 -8 -103 -33 -152 -41 -80 -106
-126 -185 -132 -132 -10 -173 73 -105 208 49 96 169 168 284 169 l43 1 -4 -94z"/>
<path d="M1325 2648 c-56 -117 -68 -215 -40 -323 38 -144 158 -247 259 -221
44 11 93 63 112 118 24 72 16 179 -19 250 -47 95 -102 145 -265 242 -9 5 -23
-15 -47 -66z m128 -2 c90 -57 145 -116 177 -188 44 -100 34 -229 -22 -293 -64
-73 -148 -67 -229 16 -107 110 -125 281 -47 452 17 37 33 67 35 67 2 0 41 -24
86 -54z"/>
<path d="M2885 2484 c-129 -77 -181 -159 -173 -274 8 -101 49 -170 102 -170
79 1 182 88 206 175 20 70 8 173 -26 242 -16 31 -34 59 -39 60 -6 2 -38 -13
-70 -33z m115 -81 c31 -102 23 -180 -26 -252 -46 -68 -154 -120 -190 -90 -58
48 -79 197 -37 274 27 50 76 98 145 140 53 33 53 33 70 13 10 -11 27 -49 38
-85z"/>
<path d="M3923 2435 c-172 -37 -335 -197 -337 -330 -1 -73 41 -139 109 -174
43 -23 62 -26 145 -25 113 0 179 21 269 84 96 68 122 107 253 387 4 8 -108 41
-202 58 -92 18 -156 17 -237 0z m312 -30 c54 -13 100 -27 103 -30 10 -9 -93
-220 -135 -275 -50 -67 -140 -133 -220 -162 -87 -31 -212 -31 -277 1 -103 51
-135 164 -77 267 31 54 123 144 175 171 113 59 268 69 431 28z"/>
<path d="M240 2193 c-43 -15 -153 -83 -165 -102 -10 -18 102 -126 162 -156 50
-26 69 -30 138 -30 94 0 153 25 185 78 83 136 -131 277 -320 210z m186 -8 c62
-18 119 -65 134 -110 10 -30 9 -41 -7 -73 -42 -87 -190 -115 -303 -58 -53 26
-132 93 -151 128 -8 14 1 24 48 56 107 71 181 86 279 57z"/>
<path d="M799 1865 c-66 -13 -216 -68 -233 -85 -6 -6 1 -24 16 -47 13 -21 44
-78 67 -126 126 -263 416 -376 719 -281 58 19 102 61 102 99 0 13 -21 64 -46
115 -128 256 -362 377 -625 325z m344 -53 c108 -53 203 -150 265 -269 66 -128
55 -170 -53 -208 -66 -23 -249 -32 -324 -15 -164 35 -298 142 -372 297 -23 48
-50 100 -60 115 -11 14 -19 29 -19 32 0 11 86 50 160 73 64 20 92 23 197 20
120 -3 122 -3 206 -45z"/>
<path d="M3729 1771 c-49 -49 -31 -139 42 -208 45 -43 91 -60 169 -64 l65 -4
-2 61 c-2 72 -19 117 -64 169 -67 76 -159 96 -210 46z m141 -6 c69 -36 120
-125 120 -211 l0 -44 -43 0 c-97 0 -173 45 -213 126 -56 114 22 188 136 129z"/>
<path d="M3233 1705 c-243 -66 -350 -301 -183 -399 49 -29 163 -28 242 3 116
45 175 111 242 269 l35 84 -44 19 c-89 40 -200 48 -292 24z m242 -20 c81 -24
80 -21 40 -116 -19 -46 -51 -105 -69 -130 -110 -150 -363 -190 -443 -70 -44
66 -20 155 63 231 107 98 255 129 409 85z"/>
</g>
</svg>
